<svg id="pattern-3" data-name="pattern" xmlns="http://www.w3.org/2000/svg" xmlns:xlink="http://www.w3.org/1999/xlink" viewBox="0 0 1024.71 873.64"><defs><style>.cls-1{fill:none;}.cls-2,.cls-3{fill:#4e2c23;}.cls-3{stroke:currentColor;stroke-miterlimit:10;stroke-width:13px;}.cls-4{fill:url(#pattern);}</style><pattern id="pattern" data-name="pattern" width="341" height="437" patternUnits="userSpaceOnUse" viewBox="0 0 341 437"><rect class="cls-1" width="341" height="437"/><path class="cls-2" d="M555.12,577.24,511.5,533.62l-39,39-4.59,4.59L332.11,441.47l9.19-9.19L467.88,558.86l39-39,4.59-4.6,43.63,43.63L681.7,432.28l9.19,9.19Z"/><path class="cls-2" d="M131.47,485.2l-9.19-9.2,48.23-48.22,4.59,4.6L218.72,476l-9.19,9.2-39-39Z"/><polygon class="cls-2" points="122.28 528.92 73.94 480.58 122.3 432.57 136.25 437 92.36 480.62 131.47 519.73 122.28 528.92"/><polygon class="cls-2" points="69.45 463.55 40.41 437.01 54.42 432.27 78.2 453.93 69.45 463.55"/><polygon class="cls-2" points="218.72 528.92 209.53 519.73 248.64 480.62 204.81 437.13 218.7 432.57 267.06 480.58 218.72 528.92"/><path class="cls-2" d="M214.12,577.24,170.5,533.62l-39,39-4.59,4.59L-8.89,441.47.3,432.28,126.88,558.86l39-39,4.59-4.6,43.63,43.63L340.7,432.28l9.19,9.19Z"/><polygon class="cls-2" points="271.55 463.55 262.8 453.93 286.58 432.27 300.69 437 271.55 463.55"/><path class="cls-2" d="M-126.88,577.24l-43.62-43.62-39,39-4.59,4.59L-349.89,441.47l9.19-9.19,126.58,126.58,39-39,4.59-4.6,43.63,43.63L-.3,432.28l9.19,9.19Z"/><polygon class="cls-2" points="341.33 223.08 332.14 213.88 375.87 170.16 385.06 179.35 341.33 223.08"/><polygon class="cls-2" points="341.6 179.68 332.41 170.48 381.14 121.76 429.36 169.98 420.16 179.17 381.14 140.14 341.6 179.68"/><polygon class="cls-2" points="341.1 135.44 331.9 126.25 375.43 82.73 384.62 91.92 341.1 135.44"/><polygon class="cls-2" points="341.03 180.25 332.41 170.48 381.14 121.76 429.36 169.98 420.16 179.17 381.14 140.14 341.03 180.25"/><path class="cls-3" d="M337,175.08"/><polygon class="cls-2" points="463.29 179.38 331.92 48.61 341.09 39.4 472.46 170.17 463.29 179.38"/><path class="cls-2" d="M555.12,140.24,511.5,96.62l-39,39-4.59,4.59L332.11,4.47l9.19-9.19L467.88,121.86l39-39,4.59-4.6,43.63,43.63L681.7-4.72l9.19,9.19Z"/><polygon class="cls-2" points="375.87 266.84 332.14 223.12 341.33 213.92 385.06 257.65 375.87 266.84"/><polygon class="cls-2" points="381.14 315.24 332.41 266.52 341.6 257.32 381.14 296.86 420.16 257.83 429.36 267.02 381.14 315.24"/><polygon class="cls-2" points="375.43 354.27 331.9 310.75 341.1 301.56 384.62 345.08 375.43 354.27"/><polygon class="cls-2" points="381.14 315.24 332.41 266.52 341 256.75 381.14 296.86 420.16 257.83 429.36 267.02 381.14 315.24"/><path class="cls-3" d="M337,261.92"/><polygon class="cls-2" points="375.43 354.27 331.9 310.75 341.1 301.56 384.62 345.08 375.43 354.27"/><polygon class="cls-2" points="341.09 397.6 331.92 388.39 463.29 257.62 472.46 266.83 341.09 397.6"/><path class="cls-2" d="M681.7,441.72,555.12,315.14l-39,39-4.6,4.6-4.59-4.6-39-39L341.3,441.72l-9.19-9.19L467.88,296.76l4.59,4.59,39,39,39-39,4.59-4.59L690.89,432.53Z"/><polygon class="cls-2" points="0.33 223.08 -8.86 213.88 34.87 170.16 44.06 179.35 0.33 223.08"/><polygon class="cls-2" points="0.6 179.68 -8.59 170.48 40.14 121.76 88.36 169.98 79.16 179.17 40.14 140.14 0.6 179.68"/><polygon class="cls-2" points="0.1 135.44 -9.1 126.25 34.43 82.73 43.62 91.92 0.1 135.44"/><path class="cls-2" d="M131.47,48.2,122.28,39,170.51-9.22l4.59,4.6L218.72,39l-9.19,9.2-39-39Z"/><path class="cls-2" d="M153.33,70.06l-9.19-9.19L170.51,34.5l4.6,4.61,21.75,21.76-9.2,9.19L170.5,52.89Z"/><polygon class="cls-2" points="0.03 180.25 -8.59 170.48 40.14 121.76 88.36 169.98 79.16 179.17 40.14 140.14 0.03 180.25"/><path class="cls-3" d="M-4,175.08"/><polygon class="cls-2" points="56.69 244.96 30.23 218.5 56.69 192.04 65.89 201.23 48.62 218.5 65.89 235.77 56.69 244.96"/><polygon class="cls-2" points="122.28 91.92 73.94 43.59 122.3 -4.43 136.25 0 92.36 43.62 131.47 82.73 122.28 91.92"/><polygon class="cls-2" points="69.45 26.55 40.41 0.01 54.42 -4.73 78.2 16.93 69.45 26.55"/><path class="cls-3" d="M32,.08"/><path class="cls-3" d="M58.15.08"/><polygon class="cls-2" points="122.29 179.38 -9.09 48.61 0.09 39.4 131.46 170.17 122.29 179.38"/><polygon class="cls-2" points="340.67 223.08 296.94 179.35 306.14 170.16 349.86 213.88 340.67 223.08"/><polygon class="cls-2" points="340.4 179.68 300.86 140.14 261.84 179.17 252.65 169.98 300.86 121.76 349.59 170.48 340.4 179.68"/><polygon class="cls-2" points="341 135.53 297.38 91.92 306.57 82.73 350.1 126.25 341 135.53"/><polygon class="cls-2" points="340.67 223.08 296.94 179.35 306.14 170.16 349.86 213.88 340.67 223.08"/><polygon class="cls-2" points="341 180.28 300.86 140.14 261.84 179.17 252.65 169.98 300.86 121.76 349.59 170.48 341 180.28"/><path class="cls-3" d="M345,175.08"/><polygon class="cls-2" points="284.31 244.96 275.12 235.77 292.38 218.5 275.12 201.23 284.31 192.04 310.77 218.5 284.31 244.96"/><polygon class="cls-2" points="218.72 91.92 209.53 82.73 248.64 43.62 204.81 0.13 218.7 -4.43 267.06 43.59 218.72 91.92"/><path class="cls-2" d="M214.12,140.24,170.5,96.62l-39,39-4.59,4.59L-8.89,4.47.3-4.72,126.88,121.86l39-39,4.59-4.6,43.63,43.63L340.7-4.72l9.19,9.19Z"/><polygon class="cls-2" points="271.55 26.55 262.8 16.93 286.58 -4.73 300.69 0 271.55 26.55"/><path class="cls-3" d="M309,.08"/><path class="cls-3" d="M282.85.08"/><path class="cls-2" d="M170.5,240.26l21.76-21.76-21.77-21.77L148.74,218.5S168.92,238.69,170.5,240.26Z"/><polygon class="cls-2" points="218.71 179.38 209.54 170.17 341.02 39.31 350.09 48.61 218.71 179.38"/><polygon class="cls-2" points="34.87 266.84 -8.86 223.12 0.33 213.92 44.06 257.65 34.87 266.84"/><polygon class="cls-2" points="40.14 315.24 -8.59 266.52 0.6 257.32 40.14 296.86 79.16 257.83 88.36 267.02 40.14 315.24"/><polygon class="cls-2" points="34.43 354.27 -9.1 310.75 0.1 301.56 43.62 345.08 34.43 354.27"/><path class="cls-2" d="M170.51,402.5l-26.37-26.37,9.19-9.19,17.17,17.17,17.16-17.17,9.2,9.19-21.75,21.76Z"/><polygon class="cls-2" points="40.14 315.24 -8.59 266.52 0 256.75 40.14 296.86 79.16 257.83 88.36 267.02 40.14 315.24"/><path class="cls-3" d="M-4,261.92"/><path class="cls-2" d="M170.52,280.34,109.4,218.25l61.11-61.57,4.59,4.6,52.62,52.62,4.59,4.6-4.59,4.6c-.5.49-49.88,49.87-52.6,52.61ZM127.07,218.5l43.44,43.43,43.42-43.43L170.5,175.07l-9.43,9.42Z"/><polygon class="cls-2" points="34.43 354.27 -9.1 310.75 0.1 301.56 43.62 345.08 34.43 354.27"/><polygon class="cls-2" points="122.3 441.43 73.94 393.41 122.28 345.08 131.47 354.27 92.36 393.38 136.22 437.02 122.3 441.43"/><polygon class="cls-2" points="54.42 441.73 40.43 437.02 69.45 410.45 78.2 420.07 54.42 441.73"/><path class="cls-3" d="M32,436.92"/><path class="cls-3" d="M58.15,436.92"/><polygon class="cls-2" points="0.09 397.6 -9.09 388.39 122.29 257.62 131.46 266.83 0.09 397.6"/><polygon class="cls-2" points="306.14 266.84 296.94 257.65 340.67 213.92 349.86 223.12 306.14 266.84"/><polygon class="cls-2" points="300.86 315.24 252.65 267.02 261.84 257.83 300.86 296.86 340.4 257.32 349.59 266.52 300.86 315.24"/><polygon class="cls-2" points="306.57 354.27 297.38 345.08 340.9 301.56 350.1 310.75 306.57 354.27"/><path class="cls-2" d="M170.49,446.22l-4.59-4.6L122.28,398l9.19-9.19,39,39,39-39,9.19,9.19Z"/><polygon class="cls-2" points="300.86 315.24 252.65 267.02 261.84 257.83 300.86 296.86 340.98 256.72 349.59 266.52 300.86 315.24"/><path class="cls-3" d="M345,261.92"/><polygon class="cls-2" points="306.57 354.27 297.38 345.08 341.02 301.45 350.1 310.75 306.57 354.27"/><polygon class="cls-2" points="218.7 441.43 204.75 436.98 248.64 393.38 209.53 354.27 218.72 345.08 267.06 393.41 218.7 441.43"/><path class="cls-2" d="M340.7,441.72,214.12,315.14l-39,39-4.6,4.6-4.59-4.6-39-39L.3,441.72l-9.19-9.19L126.88,296.76l4.59,4.59,39,39,39-39,4.59-4.59L349.89,432.53Z"/><path class="cls-2" d="M170.5,314.4,73.94,218.52l4.62-4.62,15.13-15L170.5,122.6l96.57,95.9ZM92.38,218.5l78.12,77.58,78.12-77.58L170.5,140.92Z"/><polygon class="cls-2" points="286.58 441.73 262.8 420.07 271.55 410.45 300.64 437 286.58 441.73"/><path class="cls-3" d="M309,436.92"/><path class="cls-3" d="M282.85,436.92"/><polygon class="cls-2" points="341.02 397.7 209.54 266.83 218.71 257.62 350.09 388.39 341.02 397.7"/><polygon class="cls-2" points="-0.33 223.08 -44.06 179.35 -34.86 170.16 8.86 213.88 -0.33 223.08"/><polygon class="cls-2" points="-0.6 179.68 -40.14 140.14 -79.16 179.17 -88.36 169.98 -40.14 121.76 8.59 170.48 -0.6 179.68"/><polygon class="cls-2" points="0 135.53 -43.62 91.92 -34.43 82.73 9.1 126.25 0 135.53"/><polygon class="cls-2" points="-0.33 223.08 -44.06 179.35 -34.86 170.16 8.86 213.88 -0.33 223.08"/><polygon class="cls-2" points="0 180.28 -40.14 140.14 -79.16 179.17 -88.36 169.98 -40.14 121.76 8.59 170.48 0 180.28"/><path class="cls-3" d="M4,175.08"/><path class="cls-2" d="M-126.88,140.24-170.5,96.62l-39,39-4.59,4.59L-349.89,4.47l9.19-9.19,126.58,126.58,39-39,4.59-4.6,43.63,43.63L-.3-4.72,8.89,4.47Z"/><polygon class="cls-2" points="-122.29 179.38 -131.46 170.17 0.02 39.31 9.09 48.61 -122.29 179.38"/><polygon class="cls-2" points="-34.86 266.84 -44.06 257.65 -0.33 213.92 8.86 223.12 -34.86 266.84"/><polygon class="cls-2" points="-40.14 315.24 -88.36 267.02 -79.16 257.83 -40.14 296.86 -0.6 257.32 8.59 266.52 -40.14 315.24"/><polygon class="cls-2" points="-34.43 354.27 -43.62 345.08 -0.1 301.56 9.1 310.75 -34.43 354.27"/><polygon class="cls-2" points="-40.14 315.24 -88.36 267.02 -79.16 257.83 -40.14 296.86 -0.02 256.72 8.59 266.52 -40.14 315.24"/><path class="cls-3" d="M4,261.92"/><polygon class="cls-2" points="-34.43 354.27 -43.62 345.08 0.02 301.45 9.1 310.75 -34.43 354.27"/><path class="cls-2" d="M-.3,441.72-126.88,315.14l-39,39-4.6,4.6-4.59-4.6-39-39L-340.7,441.72l-9.19-9.19,135.77-135.77,4.59,4.59,39,39,39-39,4.59-4.59L8.89,432.53Z"/><polygon class="cls-2" points="0.02 397.7 -131.46 266.83 -122.29 257.62 9.09 388.39 0.02 397.7"/><path class="cls-2" d="M681.7,4.72,555.12-121.86l-39,39-4.6,4.6-4.59-4.6-39-39L341.3,4.72l-9.19-9.19L467.88-140.24l4.59,4.59,39,39,39-39,4.59-4.59L690.89-4.47Z"/><polygon class="cls-2" points="122.3 4.43 73.94 -43.59 122.28 -91.92 131.47 -82.73 92.36 -43.62 136.22 0.02 122.3 4.43"/><polygon class="cls-2" points="54.42 4.73 40.43 0.02 69.45 -26.55 78.2 -16.93 54.42 4.73"/><path class="cls-2" d="M170.49,9.22l-4.59-4.6L122.28-39l9.19-9.19,39,39,39-39L218.72-39Z"/><polygon class="cls-2" points="218.7 4.43 204.75 -0.02 248.64 -43.62 209.53 -82.73 218.72 -91.92 267.06 -43.59 218.7 4.43"/><path class="cls-2" d="M340.7,4.72,214.12-121.86l-39,39-4.6,4.6-4.59-4.6-39-39L.3,4.72-8.89-4.47,126.88-140.24l4.59,4.59,39,39,39-39,4.59-4.59L349.89-4.47Z"/><polygon class="cls-2" points="286.58 4.73 262.8 -16.93 271.55 -26.55 300.64 0 286.58 4.73"/><path class="cls-2" d="M-.3,4.72-126.88-121.86l-39,39-4.6,4.6-4.59-4.6-39-39L-340.7,4.72l-9.19-9.19,135.77-135.77,4.59,4.59,39,39,39-39,4.59-4.59L8.89-4.47Z"/></pattern></defs><rect class="cls-4" width="1024.71" height="873.64"/></svg>