<svg xmlns="http://www.w3.org/2000/svg" id="pattern-3" data-name="pattern" viewBox="0 0 800 800"><defs><pattern id="pattern" width="30.6" height="39.21" data-name="pattern" patternUnits="userSpaceOnUse" viewBox="0 0 30.6 39.22"><path fill="none" d="M0 0h30.6v39.21H0z"/><path d="m49.82 51.79-3.92-3.91-3.51 3.5-.41.41L29.79 39.6l.82-.83L42 50.14l3.51-3.5.41-.42 3.92 3.92 11.35-11.37.82.83ZM11.79 43.53 11 42.7l4.33-4.33.41.41 3.92 3.92-.82.83L15.3 40Z" class="cls-2"/><path d="m10.97 47.45-4.34-4.34 4.34-4.31 1.25.4-3.94 3.92 3.51 3.51-.82.82zM6.22 41.58l-2.6-2.38 1.25-.43 2.14 1.95-.79.86zM19.63 47.45l-.83-.82 3.52-3.51-3.94-3.91 1.25-.41 4.34 4.31-4.34 4.34z" class="cls-2"/><path d="m19.22 51.79-3.92-3.91-3.51 3.5-.41.41L-.81 39.6l.81-.83 11.38 11.37 3.51-3.5.41-.42 3.92 3.92 11.37-11.37.82.83Z" class="cls-2"/><path d="m24.38 41.58-.79-.86 2.14-1.95 1.26.43-2.61 2.38zM-11.38 51.79l-3.92-3.91-3.51 3.5-.41.41-12.19-12.19.82-.83 11.37 11.37 3.51-3.5.41-.42 3.92 3.92L0 38.77l.82.83ZM30.62 20.02l-.83-.83 3.93-3.92.82.82-3.92 3.93z" class="cls-2"/><path d="m30.64 16.12-.82-.83 4.37-4.37 4.33 4.33-.82.82-3.51-3.5-3.55 3.55zM30.59 12.15l-.82-.83 3.91-3.91.82.83-3.91 3.91z" class="cls-2"/><path d="m30.59 16.17-.77-.88 4.37-4.37 4.33 4.33-.82.82-3.51-3.5-3.6 3.6zM41.57 16.09 29.77 4.35l.82-.83 11.8 11.75-.82.82zM49.82 12.58 45.9 8.66l-3.51 3.51-.41.41L29.79.38l.82-.82L42 10.93l3.51-3.51.39-.42 3.92 3.92L61.19-.44l.81.82ZM33.72 23.95l-3.93-3.93.83-.82 3.92 3.92-.82.83z" class="cls-2"/><path d="m34.19 28.3-4.37-4.38.82-.83 3.55 3.55 3.51-3.5.82.83-4.33 4.33zM33.68 31.8l-3.91-3.91.82-.82 3.91 3.91-.82.82z" class="cls-2"/><path d="m34.19 28.3-4.37-4.38.77-.88 3.6 3.6 3.51-3.5.82.83-4.33 4.33zM33.68 31.8l-3.91-3.91.82-.82 3.91 3.91-.82.82z" class="cls-2"/><path d="m30.59 35.69-.82-.82 11.8-11.75.82.83-11.8 11.74zM61.19 39.66 49.82 28.29l-3.51 3.5-.41.42-.41-.42-3.49-3.5-11.39 11.37-.82-.83L42 26.64l.41.41 3.51 3.5 3.51-3.5.41-.41L62 38.83ZM.02 20.02l-.83-.83 3.93-3.92.82.82-3.92 3.93z" class="cls-2"/><path d="m.04 16.12-.83-.83 4.38-4.37 4.33 4.33-.82.82-3.51-3.5-3.55 3.55zM-.01 12.15l-.82-.83 3.91-3.91.82.83-3.91 3.91zM11.79 4.31 11 3.49l4.3-4.34.41.42 3.92 3.92-.82.82L15.3.81Z" class="cls-2"/><path d="m13.76 6.28-.83-.83 2.37-2.37.41.42 2 2-.83.83-1.58-1.6ZM-.01 16.17l-.78-.88 4.38-4.37 4.33 4.33-.82.82-3.51-3.5-3.6 3.6zM5.08 21.98 2.7 19.61l2.38-2.38.82.83-1.55 1.55 1.55 1.55-.82.82zM10.97 8.24 6.63 3.9l4.34-4.31 1.25.39L8.28 3.9l3.51 3.51-.82.83zM6.22 2.37 3.62-.02l1.25-.42L7.01 1.5l-.79.87zM10.97 16.09-.83 4.35l.82-.83 11.8 11.75-.82.82zM30.58 20.02l-3.92-3.93.82-.82 3.93 3.92-.83.83z" class="cls-2"/><path d="m30.56 16.12-3.55-3.55-3.51 3.5-.82-.82 4.33-4.33 4.38 4.37-.83.83zM30.61 12.16 26.7 8.24l.82-.83 3.91 3.91-.82.84z" class="cls-2"/><path d="m30.58 20.02-3.92-3.93.82-.82 3.93 3.92-.83.83z" class="cls-2"/><path d="m30.61 16.18-3.6-3.61-3.51 3.5-.82-.82 4.33-4.33 4.38 4.37-.78.89zM25.52 21.98l-.82-.82 1.55-1.55-1.55-1.55.82-.83 2.38 2.38-2.38 2.37zM19.63 8.24l-.83-.83 3.52-3.51-3.94-3.91 1.25-.4 4.34 4.31-4.34 4.34z" class="cls-2"/><path d="M19.22 12.58 15.3 8.66l-3.51 3.51-.41.41L-.81.38 0-.44l11.38 11.37 3.51-3.51.41-.42 3.92 3.92L30.59-.44l.82.82Z" class="cls-2"/><path d="m24.38 2.37-.79-.87 2.14-1.94 1.26.42-2.61 2.39zM15.3 21.56l1.95-1.95-1.95-2-2 2ZM19.63 16.09l-.82-.82 11.8-11.76.82.84-11.8 11.74zM3.12 23.95l-3.93-3.93.83-.82 3.92 3.92-.82.83z" class="cls-2"/><path d="m3.59 28.3-4.38-4.38.83-.83 3.55 3.55 3.51-3.5.82.83-4.33 4.33zM3.08 31.8l-3.91-3.91.82-.82 3.91 3.91-.82.82zM15.3 36.13l-2.37-2.36.83-.83 1.54 1.54 1.54-1.54.83.83-2 1.95Z" class="cls-2"/><path d="m3.59 28.3-4.38-4.38.78-.88 3.6 3.6 3.51-3.5.82.83-4.33 4.33zM15.3 25.16l-5.49-5.58 5.49-5.53.41.42 4.73 4.72.41.42-.41.41-4.73 4.73Zm-3.9-5.55 3.9 3.9 3.9-3.9-3.9-3.9-.85.84ZM3.08 31.8l-3.91-3.91.82-.82 3.91 3.91-.82.82zM10.97 39.63l-4.34-4.31 4.34-4.34.82.82-3.51 3.51 3.94 3.92-1.25.4zM4.87 39.66l-1.25-.43 2.6-2.38.79.86-2.14 1.95z" class="cls-2"/><path d="m-.01 35.69-.82-.82 11.8-11.75.82.83-11.8 11.74zM27.48 23.95l-.82-.83 3.92-3.92.83.82-3.93 3.93z" class="cls-2"/><path d="m27.01 28.3-4.33-4.33.82-.83 3.51 3.5 3.55-3.55.83.83-4.38 4.38zM27.52 31.8l-.82-.82 3.91-3.91.82.82-3.91 3.91zM15.3 40.06l-.41-.41L11 35.73l.82-.83 3.51 3.51 3.51-3.51.82.83Z" class="cls-2"/><path d="m27.01 28.3-4.33-4.33.82-.83 3.51 3.5 3.6-3.6.78.88-4.38 4.38zM27.52 31.8l-.82-.82 3.91-3.92.82.83-3.91 3.91zM19.63 39.63l-1.25-.4 3.94-3.92-3.52-3.51.83-.82 4.34 4.34-4.34 4.31z" class="cls-2"/><path d="M30.59 39.66 19.22 28.29l-3.51 3.5-.41.42-.41-.42-3.51-3.5L0 39.66l-.82-.83 12.2-12.19.41.41 3.51 3.5 3.51-3.5.41-.41 12.19 12.19Z" class="cls-2"/><path d="m15.3 28.22-8.67-8.61.37-.42 1.4-1.34L15.3 11l8.7 8.61Zm-7-8.61 7 7 7-7-7-7ZM25.73 39.66l-2.14-1.95.79-.86 2.61 2.38-1.26.43z" class="cls-2"/><path d="m30.61 35.7-11.8-11.75.82-.83 11.8 11.75-.82.83zM-.02 20.02l-3.92-3.93.82-.82 3.93 3.92-.83.83z" class="cls-2"/><path d="m-.04 16.12-3.55-3.55-3.51 3.5-.82-.82 4.33-4.33 4.38 4.37-.83.83zM.01 12.16-3.9 8.24l.82-.83 3.91 3.91-.82.84z" class="cls-2"/><path d="m-.02 20.02-3.92-3.93.82-.82 3.93 3.92-.83.83z" class="cls-2"/><path d="m.01 16.18-3.6-3.61-3.51 3.5-.82-.82 4.33-4.33 4.38 4.37-.78.89zM-11.38 12.58l-3.92-3.92-3.51 3.51-.41.41L-31.41.38l.82-.82 11.37 11.37 3.51-3.51.41-.42 3.92 3.92L0-.44l.81.82ZM-10.97 16.09l-.82-.82L.01 3.51l.82.84-11.8 11.74zM-3.12 23.95l-.82-.83 3.92-3.92.83.82-3.93 3.93z" class="cls-2"/><path d="m-3.59 28.3-4.33-4.33.82-.83 3.51 3.5 3.55-3.55.83.83-4.38 4.38zM-3.08 31.8l-.82-.82 3.91-3.91.82.82-3.91 3.91z" class="cls-2"/><path d="m-3.59 28.3-4.33-4.33.82-.83 3.51 3.5 3.6-3.6.78.88-4.38 4.38zM-3.08 31.8l-.82-.82 3.91-3.92.82.83-3.91 3.91zM0 39.66l-11.38-11.37-3.51 3.5-.41.42-.41-.42-3.51-3.5-11.37 11.37-.82-.83 12.19-12.19.41.41 3.51 3.5 3.51-3.5.41-.41L.81 38.83Z" class="cls-2"/><path d="m.01 35.7-11.8-11.75.82-.83L.83 34.87l-.82.83zM61.19.44 49.82-10.93l-3.51 3.51-.41.42-.41-.41L42-10.93 30.61.44l-.82-.82L42-12.58l.41.41 3.49 3.51 3.51-3.51.41-.41L62-.38ZM10.97.41 6.63-3.9l4.34-4.34.82.83L8.28-3.9 12.22.02l-1.25.39zM4.87.44 3.62.02l2.6-2.39.79.87L4.87.44z" class="cls-2"/><path d="m15.3.85-.41-.42L11-3.49l.82-.82 3.48 3.5 3.51-3.5.82.82Z" class="cls-2"/><path d="M19.63.41 18.38.02l3.94-3.92-3.52-3.51.83-.83 4.34 4.34L19.63.41z" class="cls-2"/><path d="M30.59.44 19.22-10.93l-3.51 3.51-.41.42-.41-.41-3.51-3.51L0 .44l-.81-.82 12.19-12.2.41.41 3.51 3.51 3.51-3.51.41-.41L31.41-.38Z" class="cls-2"/><path d="M25.73.44 23.59-1.5l.79-.87L26.99.02l-1.26.42zM0 .44l-11.38-11.37-3.51 3.51-.41.42-.41-.41-3.51-3.51L-30.59.44l-.82-.82 12.19-12.2.41.41 3.51 3.51 3.51-3.51.41-.41L.81-.38Z" class="cls-2"/></pattern></defs><path fill="url(#pattern)" d="M0 0h800v800H0z"/></svg>